<?xml version="1.0" encoding="utf-8"?>
<!-- Generator: Adobe Illustrator 23.0.1, SVG Export Plug-In . SVG Version: 6.00 Build 0)  -->
<svg version="1.1" id="Layer_1" xmlns="http://www.w3.org/2000/svg" xmlns:xlink="http://www.w3.org/1999/xlink" x="0px" y="0px"
	 viewBox="0 0 14 14" style="enable-background:new 0 0 14 14;" xml:space="preserve">
<style type="text/css">
	.st0{fill:#FFFFFF;}
</style>
<title>am-logo</title>
<g>
	<path class="st0" d="M11,2v5H9V2H2v10h1V8h5v4h4V2H11z M8,4v3H3V3h5V4z M11,9v2H9V8h2V9z"/>
	<polygon class="st0" points="6,10 6,11 6,12 7,12 7,11 7,10 7,9 6,9 	"/>
	<polygon class="st0" points="4,10 4,11 4,12 5,12 5,11 5,10 5,9 4,9 	"/>
</g>
</svg>
